<?xml version="1.0" standalone="no"?>
<!DOCTYPE svg PUBLIC "-//W3C//DTD SVG 20010904//EN"
 "http://www.w3.org/TR/2001/REC-SVG-20010904/DTD/svg10.dtd">
<svg version="1.0" xmlns="http://www.w3.org/2000/svg"
 width="700.000000pt" height="700.000000pt" viewBox="0 0 700.000000 700.000000"
 preserveAspectRatio="xMidYMid meet">
<metadata>
Created by potrace 1.14, written by Peter Selinger 2001-2017
</metadata>
<g transform="translate(0.000000,700.000000) scale(0.100000,-0.100000)"
fill="#000000" stroke="none">
<path d="M3338 6505 c-2 -1 -41 -5 -88 -9 -132 -9 -174 -15 -330 -46 -138 -28
-351 -84 -415 -111 -16 -7 -34 -13 -40 -14 -27 -7 -142 -56 -265 -113 -348
-161 -712 -441 -984 -757 -333 -384 -582 -901 -670 -1390 -3 -17 -8 -41 -11
-55 -5 -25 -11 -68 -20 -145 -17 -136 -22 -231 -20 -400 4 -254 29 -462 82
-670 8 -33 17 -69 19 -80 6 -35 81 -257 114 -340 78 -193 203 -424 323 -594
188 -267 473 -558 697 -711 19 -13 37 -27 40 -30 9 -11 198 -130 262 -165 100
-56 268 -136 368 -175 119 -47 356 -119 450 -137 13 -2 53 -10 90 -18 36 -7
92 -17 125 -20 33 -4 63 -9 66 -11 39 -23 701 -22 739 1 3 2 32 6 64 10 125
13 361 69 528 125 336 113 671 299 938 520 237 195 440 420 604 668 229 345
368 687 452 1107 4 20 9 51 19 110 3 17 7 53 10 80 3 28 8 68 11 90 10 71 11
407 3 500 -17 188 -27 256 -54 380 -1 6 -5 28 -9 50 -5 22 -14 63 -22 91 -8
28 -16 60 -18 70 -7 35 -74 228 -109 314 -195 480 -503 890 -926 1233 -56 45
-205 149 -290 201 -386 238 -803 378 -1286 432 -59 6 -441 14 -447 9z"/>
</g>
</svg>
